<?xml version="1.0" encoding="UTF-8" standalone="no"?>
<!DOCTYPE svg PUBLIC "-//W3C//DTD SVG 1.1//EN"
 "http://www.w3.org/Graphics/SVG/1.1/DTD/svg11.dtd">
<!-- Generated by graphviz version 2.43.0 (0)
 -->
<!-- Title: test Pages: 1 -->
<svg width="1190pt" height="378pt"
 viewBox="0.00 0.00 1189.50 378.00" xmlns="http://www.w3.org/2000/svg" xmlns:xlink="http://www.w3.org/1999/xlink">
<g id="graph0" class="graph" transform="scale(1 1) rotate(0) translate(4 374)">
<title>test</title>
<polygon fill="white" stroke="transparent" points="-4,4 -4,-374 1185.5,-374 1185.5,4 -4,4"/>
<!-- node1 -->
<g id="node1" class="node">
<title>node1</title>
<polygon fill="white" stroke="black" points="0,-286 0,-362 203,-362 203,-286 0,-286"/>
<text text-anchor="middle" x="101.5" y="-346.8" font-family="Times,serif" font-size="14.00">naive.clients</text>
<polyline fill="none" stroke="black" points="0,-339 203,-339 "/>
<text text-anchor="start" x="8" y="-323.8" font-family="Times,serif" font-size="14.00">&#45; client_id integer [U]</text>
<text text-anchor="start" x="8" y="-308.8" font-family="Times,serif" font-size="14.00">&#45; client_address text [U,N]</text>
<text text-anchor="start" x="8" y="-293.8" font-family="Times,serif" font-size="14.00">&#45; client_meta jsonb</text>
</g>
<!-- node7 -->
<g id="node7" class="node">
<title>node7</title>
<polygon fill="white" stroke="black" points="118.5,-0.5 118.5,-241.5 434.5,-241.5 434.5,-0.5 118.5,-0.5"/>
<text text-anchor="middle" x="276.5" y="-226.3" font-family="Times,serif" font-size="14.00">naive.published_deals</text>
<polyline fill="none" stroke="black" points="118.5,-218.5 434.5,-218.5 "/>
<text text-anchor="start" x="126.5" y="-203.3" font-family="Times,serif" font-size="14.00">&#45; deal_id bigint [U]</text>
<text text-anchor="start" x="126.5" y="-188.3" font-family="Times,serif" font-size="14.00">&#45; piece_id bigint [FK]</text>
<text text-anchor="start" x="126.5" y="-173.3" font-family="Times,serif" font-size="14.00">&#45; claimed_log2_size smallint</text>
<text text-anchor="start" x="126.5" y="-158.3" font-family="Times,serif" font-size="14.00">&#45; provider_id integer [FK]</text>
<text text-anchor="start" x="126.5" y="-143.3" font-family="Times,serif" font-size="14.00">&#45; client_id integer [FK]</text>
<text text-anchor="start" x="126.5" y="-128.3" font-family="Times,serif" font-size="14.00">&#45; label bytea</text>
<text text-anchor="start" x="126.5" y="-113.3" font-family="Times,serif" font-size="14.00">&#45; decoded_label text [N]</text>
<text text-anchor="start" x="126.5" y="-98.3" font-family="Times,serif" font-size="14.00">&#45; is_filplus boolean</text>
<text text-anchor="start" x="126.5" y="-83.3" font-family="Times,serif" font-size="14.00">&#45; status text</text>
<text text-anchor="start" x="126.5" y="-68.3" font-family="Times,serif" font-size="14.00">&#45; published_deal_meta jsonb</text>
<text text-anchor="start" x="126.5" y="-53.3" font-family="Times,serif" font-size="14.00">&#45; start_epoch integer</text>
<text text-anchor="start" x="126.5" y="-38.3" font-family="Times,serif" font-size="14.00">&#45; end_epoch integer</text>
<text text-anchor="start" x="126.5" y="-23.3" font-family="Times,serif" font-size="14.00">&#45; sector_start_epoch integer [N]</text>
<text text-anchor="start" x="126.5" y="-8.3" font-family="Times,serif" font-size="14.00">&#45; entry_created timestamp with time zone</text>
</g>
<!-- node1&#45;&gt;node7 -->
<g id="edge1" class="edge">
<title>node1&#45;&gt;node7</title>
<path fill="none" stroke="black" d="M134.01,-285.66C143.34,-274.94 154.09,-262.6 165.4,-249.61"/>
<polygon fill="black" stroke="black" points="168.19,-251.73 172.11,-241.89 162.91,-247.14 168.19,-251.73"/>
</g>
<!-- node2 -->
<g id="node2" class="node">
<title>node2</title>
<polygon fill="white" stroke="black" points="745.5,-293.5 745.5,-354.5 957.5,-354.5 957.5,-293.5 745.5,-293.5"/>
<text text-anchor="middle" x="851.5" y="-339.3" font-family="Times,serif" font-size="14.00">naive.global</text>
<polyline fill="none" stroke="black" points="745.5,-331.5 957.5,-331.5 "/>
<text text-anchor="start" x="753.5" y="-316.3" font-family="Times,serif" font-size="14.00">&#45; singleton_row boolean [U]</text>
<text text-anchor="start" x="753.5" y="-301.3" font-family="Times,serif" font-size="14.00">&#45; metadata jsonb</text>
</g>
<!-- node3 -->
<g id="node3" class="node">
<title>node3</title>
<polygon fill="white" stroke="black" points="221.5,-278.5 221.5,-369.5 457.5,-369.5 457.5,-278.5 221.5,-278.5"/>
<text text-anchor="middle" x="339.5" y="-354.3" font-family="Times,serif" font-size="14.00">naive.pieces</text>
<polyline fill="none" stroke="black" points="221.5,-346.5 457.5,-346.5 "/>
<text text-anchor="start" x="229.5" y="-331.3" font-family="Times,serif" font-size="14.00">&#45; piece_id bigint [U]</text>
<text text-anchor="start" x="229.5" y="-316.3" font-family="Times,serif" font-size="14.00">&#45; piece_cid text [U]</text>
<text text-anchor="start" x="229.5" y="-301.3" font-family="Times,serif" font-size="14.00">&#45; proven_log2_size smallint [N]</text>
<text text-anchor="start" x="229.5" y="-286.3" font-family="Times,serif" font-size="14.00">&#45; piece_meta jsonb</text>
</g>
<!-- node3&#45;&gt;node7 -->
<g id="edge2" class="edge">
<title>node3&#45;&gt;node7</title>
<path fill="none" stroke="black" d="M325.52,-278.39C322.88,-269.98 320,-260.8 317.01,-251.24"/>
<polygon fill="black" stroke="black" points="320.31,-250.06 313.98,-241.57 313.63,-252.16 320.31,-250.06"/>
</g>
<!-- node4 -->
<g id="node4" class="node">
<title>node4</title>
<polygon fill="white" stroke="black" points="537.5,-293.5 537.5,-354.5 727.5,-354.5 727.5,-293.5 537.5,-293.5"/>
<text text-anchor="middle" x="632.5" y="-339.3" font-family="Times,serif" font-size="14.00">naive.providers</text>
<polyline fill="none" stroke="black" points="537.5,-331.5 727.5,-331.5 "/>
<text text-anchor="start" x="545.5" y="-316.3" font-family="Times,serif" font-size="14.00">&#45; provider_id integer [U]</text>
<text text-anchor="start" x="545.5" y="-301.3" font-family="Times,serif" font-size="14.00">&#45; provider_meta jsonb</text>
</g>
<!-- node5 -->
<g id="node5" class="node">
<title>node5</title>
<polygon fill="white" stroke="black" points="452,-60.5 452,-181.5 813,-181.5 813,-60.5 452,-60.5"/>
<text text-anchor="middle" x="632.5" y="-166.3" font-family="Times,serif" font-size="14.00">naive.providers_info</text>
<polyline fill="none" stroke="black" points="452,-158.5 813,-158.5 "/>
<text text-anchor="start" x="460" y="-143.3" font-family="Times,serif" font-size="14.00">&#45; provider_id integer [FK,U]</text>
<text text-anchor="start" x="460" y="-128.3" font-family="Times,serif" font-size="14.00">&#45; provider_last_polled timestamp with time zone</text>
<text text-anchor="start" x="460" y="-113.3" font-family="Times,serif" font-size="14.00">&#45; info_last_updated timestamp with time zone</text>
<text text-anchor="start" x="460" y="-98.3" font-family="Times,serif" font-size="14.00">&#45; info_dialing_took_msecs integer [N]</text>
<text text-anchor="start" x="460" y="-83.3" font-family="Times,serif" font-size="14.00">&#45; info_dialing_peerid text [N]</text>
<text text-anchor="start" x="460" y="-68.3" font-family="Times,serif" font-size="14.00">&#45; info jsonb</text>
</g>
<!-- node4&#45;&gt;node5 -->
<g id="edge3" class="edge">
<title>node4&#45;&gt;node5</title>
<path fill="none" stroke="black" d="M632.5,-293.34C632.5,-266.7 632.5,-226.56 632.5,-191.82"/>
<polygon fill="black" stroke="black" points="636,-191.71 632.5,-181.71 629,-191.71 636,-191.71"/>
</g>
<!-- node6 -->
<g id="node6" class="node">
<title>node6</title>
<polygon fill="white" stroke="black" points="831.5,-68 831.5,-174 1181.5,-174 1181.5,-68 831.5,-68"/>
<text text-anchor="middle" x="1006.5" y="-158.8" font-family="Times,serif" font-size="14.00">naive.providers_info_log</text>
<polyline fill="none" stroke="black" points="831.5,-151 1181.5,-151 "/>
<text text-anchor="start" x="839.5" y="-135.8" font-family="Times,serif" font-size="14.00">&#45; provider_id integer [FK]</text>
<text text-anchor="start" x="839.5" y="-120.8" font-family="Times,serif" font-size="14.00">&#45; info_entry_created timestamp with time zone</text>
<text text-anchor="start" x="839.5" y="-105.8" font-family="Times,serif" font-size="14.00">&#45; info_dialing_took_msecs integer [N]</text>
<text text-anchor="start" x="839.5" y="-90.8" font-family="Times,serif" font-size="14.00">&#45; info_dialing_peerid text [N]</text>
<text text-anchor="start" x="839.5" y="-75.8" font-family="Times,serif" font-size="14.00">&#45; info jsonb</text>
</g>
<!-- node4&#45;&gt;node6 -->
<g id="edge4" class="edge">
<title>node4&#45;&gt;node6</title>
<path fill="none" stroke="black" d="M700.72,-293.39C712.64,-288.25 724.93,-282.96 736.5,-278 774.22,-261.85 785.26,-261.24 821.5,-242 856.12,-223.62 892.63,-200.75 923.99,-179.92"/>
<polygon fill="black" stroke="black" points="926.33,-182.57 932.7,-174.11 922.44,-176.75 926.33,-182.57"/>
</g>
<!-- node4&#45;&gt;node7 -->
<g id="edge5" class="edge">
<title>node4&#45;&gt;node7</title>
<path fill="none" stroke="black" d="M552.04,-293.33C519.9,-280.39 482.79,-264.07 443.53,-242.44"/>
<polygon fill="black" stroke="black" points="445.02,-239.27 434.58,-237.44 441.61,-245.38 445.02,-239.27"/>
</g>
</g>
</svg>
