<?xml version="1.0" encoding="UTF-8" standalone="no"?>
<!DOCTYPE svg PUBLIC "-//W3C//DTD SVG 1.1//EN"
 "http://www.w3.org/Graphics/SVG/1.1/DTD/svg11.dtd">
<!-- Generated by graphviz version 2.43.0 (0)
 -->
<!-- Title: test Pages: 1 -->
<svg width="1190pt" height="408pt"
 viewBox="0.00 0.00 1189.50 408.00" xmlns="http://www.w3.org/2000/svg" xmlns:xlink="http://www.w3.org/1999/xlink">
<g id="graph0" class="graph" transform="scale(1 1) rotate(0) translate(4 404)">
<title>test</title>
<polygon fill="white" stroke="transparent" points="-4,4 -4,-404 1185.5,-404 1185.5,4 -4,4"/>
<!-- node1 -->
<g id="node1" class="node">
<title>node1</title>
<polygon fill="white" stroke="black" points="0,-316 0,-392 203,-392 203,-316 0,-316"/>
<text text-anchor="middle" x="101.5" y="-376.8" font-family="Times,serif" font-size="14.00">naive.clients</text>
<polyline fill="none" stroke="black" points="0,-369 203,-369 "/>
<text text-anchor="start" x="8" y="-353.8" font-family="Times,serif" font-size="14.00">&#45; client_id integer [U]</text>
<text text-anchor="start" x="8" y="-338.8" font-family="Times,serif" font-size="14.00">&#45; client_address text [U,N]</text>
<text text-anchor="start" x="8" y="-323.8" font-family="Times,serif" font-size="14.00">&#45; client_meta jsonb</text>
</g>
<!-- node7 -->
<g id="node7" class="node">
<title>node7</title>
<polygon fill="white" stroke="black" points="118.5,-0.5 118.5,-271.5 434.5,-271.5 434.5,-0.5 118.5,-0.5"/>
<text text-anchor="middle" x="276.5" y="-256.3" font-family="Times,serif" font-size="14.00">naive.published_deals</text>
<polyline fill="none" stroke="black" points="118.5,-248.5 434.5,-248.5 "/>
<text text-anchor="start" x="126.5" y="-233.3" font-family="Times,serif" font-size="14.00">&#45; deal_id bigint [U]</text>
<text text-anchor="start" x="126.5" y="-218.3" font-family="Times,serif" font-size="14.00">&#45; piece_id bigint [FK]</text>
<text text-anchor="start" x="126.5" y="-203.3" font-family="Times,serif" font-size="14.00">&#45; provider_id integer [FK]</text>
<text text-anchor="start" x="126.5" y="-188.3" font-family="Times,serif" font-size="14.00">&#45; client_id integer [FK]</text>
<text text-anchor="start" x="126.5" y="-173.3" font-family="Times,serif" font-size="14.00">&#45; claimed_log2_size smallint</text>
<text text-anchor="start" x="126.5" y="-158.3" font-family="Times,serif" font-size="14.00">&#45; state smallint</text>
<text text-anchor="start" x="126.5" y="-143.3" font-family="Times,serif" font-size="14.00">&#45; label bytea</text>
<text text-anchor="start" x="126.5" y="-128.3" font-family="Times,serif" font-size="14.00">&#45; decoded_label text [N]</text>
<text text-anchor="start" x="126.5" y="-113.3" font-family="Times,serif" font-size="14.00">&#45; is_filplus boolean</text>
<text text-anchor="start" x="126.5" y="-98.3" font-family="Times,serif" font-size="14.00">&#45; status text</text>
<text text-anchor="start" x="126.5" y="-83.3" font-family="Times,serif" font-size="14.00">&#45; published_deal_meta jsonb</text>
<text text-anchor="start" x="126.5" y="-68.3" font-family="Times,serif" font-size="14.00">&#45; start_epoch integer</text>
<text text-anchor="start" x="126.5" y="-53.3" font-family="Times,serif" font-size="14.00">&#45; end_epoch integer</text>
<text text-anchor="start" x="126.5" y="-38.3" font-family="Times,serif" font-size="14.00">&#45; sector_start_epoch integer [N]</text>
<text text-anchor="start" x="126.5" y="-23.3" font-family="Times,serif" font-size="14.00">&#45; sector_start_rounded integer [N]</text>
<text text-anchor="start" x="126.5" y="-8.3" font-family="Times,serif" font-size="14.00">&#45; entry_created timestamp with time zone</text>
</g>
<!-- node1&#45;&gt;node7 -->
<g id="edge1" class="edge">
<title>node1&#45;&gt;node7</title>
<path fill="none" stroke="black" d="M131.58,-315.87C140.24,-305.18 150.25,-292.83 160.87,-279.72"/>
<polygon fill="black" stroke="black" points="163.61,-281.9 167.19,-271.92 158.17,-277.49 163.61,-281.9"/>
</g>
<!-- node2 -->
<g id="node2" class="node">
<title>node2</title>
<polygon fill="white" stroke="black" points="745.5,-323.5 745.5,-384.5 957.5,-384.5 957.5,-323.5 745.5,-323.5"/>
<text text-anchor="middle" x="851.5" y="-369.3" font-family="Times,serif" font-size="14.00">naive.global</text>
<polyline fill="none" stroke="black" points="745.5,-361.5 957.5,-361.5 "/>
<text text-anchor="start" x="753.5" y="-346.3" font-family="Times,serif" font-size="14.00">&#45; singleton_row boolean [U]</text>
<text text-anchor="start" x="753.5" y="-331.3" font-family="Times,serif" font-size="14.00">&#45; metadata jsonb</text>
</g>
<!-- node3 -->
<g id="node3" class="node">
<title>node3</title>
<polygon fill="white" stroke="black" points="221.5,-308.5 221.5,-399.5 457.5,-399.5 457.5,-308.5 221.5,-308.5"/>
<text text-anchor="middle" x="339.5" y="-384.3" font-family="Times,serif" font-size="14.00">naive.pieces</text>
<polyline fill="none" stroke="black" points="221.5,-376.5 457.5,-376.5 "/>
<text text-anchor="start" x="229.5" y="-361.3" font-family="Times,serif" font-size="14.00">&#45; piece_id bigint [U]</text>
<text text-anchor="start" x="229.5" y="-346.3" font-family="Times,serif" font-size="14.00">&#45; piece_cid text [U]</text>
<text text-anchor="start" x="229.5" y="-331.3" font-family="Times,serif" font-size="14.00">&#45; proven_log2_size smallint [N]</text>
<text text-anchor="start" x="229.5" y="-316.3" font-family="Times,serif" font-size="14.00">&#45; piece_meta jsonb</text>
</g>
<!-- node3&#45;&gt;node7 -->
<g id="edge2" class="edge">
<title>node3&#45;&gt;node7</title>
<path fill="none" stroke="black" d="M326.45,-308.24C324.01,-299.9 321.35,-290.79 318.57,-281.24"/>
<polygon fill="black" stroke="black" points="321.91,-280.19 315.75,-271.57 315.19,-282.15 321.91,-280.19"/>
</g>
<!-- node4 -->
<g id="node4" class="node">
<title>node4</title>
<polygon fill="white" stroke="black" points="537.5,-323.5 537.5,-384.5 727.5,-384.5 727.5,-323.5 537.5,-323.5"/>
<text text-anchor="middle" x="632.5" y="-369.3" font-family="Times,serif" font-size="14.00">naive.providers</text>
<polyline fill="none" stroke="black" points="537.5,-361.5 727.5,-361.5 "/>
<text text-anchor="start" x="545.5" y="-346.3" font-family="Times,serif" font-size="14.00">&#45; provider_id integer [U]</text>
<text text-anchor="start" x="545.5" y="-331.3" font-family="Times,serif" font-size="14.00">&#45; provider_meta jsonb</text>
</g>
<!-- node5 -->
<g id="node5" class="node">
<title>node5</title>
<polygon fill="white" stroke="black" points="452,-75.5 452,-196.5 813,-196.5 813,-75.5 452,-75.5"/>
<text text-anchor="middle" x="632.5" y="-181.3" font-family="Times,serif" font-size="14.00">naive.providers_info</text>
<polyline fill="none" stroke="black" points="452,-173.5 813,-173.5 "/>
<text text-anchor="start" x="460" y="-158.3" font-family="Times,serif" font-size="14.00">&#45; provider_id integer [FK,U]</text>
<text text-anchor="start" x="460" y="-143.3" font-family="Times,serif" font-size="14.00">&#45; provider_last_polled timestamp with time zone</text>
<text text-anchor="start" x="460" y="-128.3" font-family="Times,serif" font-size="14.00">&#45; info_last_updated timestamp with time zone</text>
<text text-anchor="start" x="460" y="-113.3" font-family="Times,serif" font-size="14.00">&#45; info_dialing_took_msecs integer [N]</text>
<text text-anchor="start" x="460" y="-98.3" font-family="Times,serif" font-size="14.00">&#45; info_dialing_peerid text [N]</text>
<text text-anchor="start" x="460" y="-83.3" font-family="Times,serif" font-size="14.00">&#45; info jsonb</text>
</g>
<!-- node4&#45;&gt;node5 -->
<g id="edge3" class="edge">
<title>node4&#45;&gt;node5</title>
<path fill="none" stroke="black" d="M632.5,-323.42C632.5,-293.55 632.5,-246.32 632.5,-206.88"/>
<polygon fill="black" stroke="black" points="636,-206.77 632.5,-196.77 629,-206.77 636,-206.77"/>
</g>
<!-- node6 -->
<g id="node6" class="node">
<title>node6</title>
<polygon fill="white" stroke="black" points="831.5,-83 831.5,-189 1181.5,-189 1181.5,-83 831.5,-83"/>
<text text-anchor="middle" x="1006.5" y="-173.8" font-family="Times,serif" font-size="14.00">naive.providers_info_log</text>
<polyline fill="none" stroke="black" points="831.5,-166 1181.5,-166 "/>
<text text-anchor="start" x="839.5" y="-150.8" font-family="Times,serif" font-size="14.00">&#45; provider_id integer [FK]</text>
<text text-anchor="start" x="839.5" y="-135.8" font-family="Times,serif" font-size="14.00">&#45; info_entry_created timestamp with time zone</text>
<text text-anchor="start" x="839.5" y="-120.8" font-family="Times,serif" font-size="14.00">&#45; info_dialing_took_msecs integer [N]</text>
<text text-anchor="start" x="839.5" y="-105.8" font-family="Times,serif" font-size="14.00">&#45; info_dialing_peerid text [N]</text>
<text text-anchor="start" x="839.5" y="-90.8" font-family="Times,serif" font-size="14.00">&#45; info jsonb</text>
</g>
<!-- node4&#45;&gt;node6 -->
<g id="edge4" class="edge">
<title>node4&#45;&gt;node6</title>
<path fill="none" stroke="black" d="M700.72,-323.39C712.64,-318.25 724.93,-312.96 736.5,-308 774.22,-291.85 785.81,-292.23 821.5,-272 860.57,-249.86 901.17,-220.99 934.34,-195.62"/>
<polygon fill="black" stroke="black" points="936.83,-198.13 942.61,-189.26 932.56,-192.59 936.83,-198.13"/>
</g>
<!-- node4&#45;&gt;node7 -->
<g id="edge5" class="edge">
<title>node4&#45;&gt;node7</title>
<path fill="none" stroke="black" d="M549.14,-323.33C517.42,-310.67 481.3,-294.56 443.47,-272.42"/>
<polygon fill="black" stroke="black" points="445.24,-269.4 434.86,-267.29 441.66,-275.41 445.24,-269.4"/>
</g>
</g>
</svg>
