<?xml version="1.0" encoding="UTF-8" standalone="no"?>
<!DOCTYPE svg PUBLIC "-//W3C//DTD SVG 1.1//EN"
 "http://www.w3.org/Graphics/SVG/1.1/DTD/svg11.dtd">
<!-- Generated by graphviz version 2.43.0 (0)
 -->
<!-- Title: test Pages: 1 -->
<svg width="1190pt" height="393pt"
 viewBox="0.00 0.00 1189.50 393.00" xmlns="http://www.w3.org/2000/svg" xmlns:xlink="http://www.w3.org/1999/xlink">
<g id="graph0" class="graph" transform="scale(1 1) rotate(0) translate(4 389)">
<title>test</title>
<polygon fill="white" stroke="transparent" points="-4,4 -4,-389 1185.5,-389 1185.5,4 -4,4"/>
<!-- node1 -->
<g id="node1" class="node">
<title>node1</title>
<polygon fill="white" stroke="black" points="0,-301 0,-377 203,-377 203,-301 0,-301"/>
<text text-anchor="middle" x="101.5" y="-361.8" font-family="Times,serif" font-size="14.00">naive.clients</text>
<polyline fill="none" stroke="black" points="0,-354 203,-354 "/>
<text text-anchor="start" x="8" y="-338.8" font-family="Times,serif" font-size="14.00">&#45; client_id integer [U]</text>
<text text-anchor="start" x="8" y="-323.8" font-family="Times,serif" font-size="14.00">&#45; client_address text [U,N]</text>
<text text-anchor="start" x="8" y="-308.8" font-family="Times,serif" font-size="14.00">&#45; client_meta jsonb</text>
</g>
<!-- node7 -->
<g id="node7" class="node">
<title>node7</title>
<polygon fill="white" stroke="black" points="118.5,-0.5 118.5,-256.5 434.5,-256.5 434.5,-0.5 118.5,-0.5"/>
<text text-anchor="middle" x="276.5" y="-241.3" font-family="Times,serif" font-size="14.00">naive.published_deals</text>
<polyline fill="none" stroke="black" points="118.5,-233.5 434.5,-233.5 "/>
<text text-anchor="start" x="126.5" y="-218.3" font-family="Times,serif" font-size="14.00">&#45; deal_id bigint [U]</text>
<text text-anchor="start" x="126.5" y="-203.3" font-family="Times,serif" font-size="14.00">&#45; piece_id bigint [FK]</text>
<text text-anchor="start" x="126.5" y="-188.3" font-family="Times,serif" font-size="14.00">&#45; claimed_log2_size smallint</text>
<text text-anchor="start" x="126.5" y="-173.3" font-family="Times,serif" font-size="14.00">&#45; provider_id integer [FK]</text>
<text text-anchor="start" x="126.5" y="-158.3" font-family="Times,serif" font-size="14.00">&#45; client_id integer [FK]</text>
<text text-anchor="start" x="126.5" y="-143.3" font-family="Times,serif" font-size="14.00">&#45; label bytea</text>
<text text-anchor="start" x="126.5" y="-128.3" font-family="Times,serif" font-size="14.00">&#45; decoded_label text [N]</text>
<text text-anchor="start" x="126.5" y="-113.3" font-family="Times,serif" font-size="14.00">&#45; is_filplus boolean</text>
<text text-anchor="start" x="126.5" y="-98.3" font-family="Times,serif" font-size="14.00">&#45; status text</text>
<text text-anchor="start" x="126.5" y="-83.3" font-family="Times,serif" font-size="14.00">&#45; published_deal_meta jsonb</text>
<text text-anchor="start" x="126.5" y="-68.3" font-family="Times,serif" font-size="14.00">&#45; start_epoch integer</text>
<text text-anchor="start" x="126.5" y="-53.3" font-family="Times,serif" font-size="14.00">&#45; end_epoch integer</text>
<text text-anchor="start" x="126.5" y="-38.3" font-family="Times,serif" font-size="14.00">&#45; sector_start_epoch integer [N]</text>
<text text-anchor="start" x="126.5" y="-23.3" font-family="Times,serif" font-size="14.00">&#45; sector_start_rounded integer [N]</text>
<text text-anchor="start" x="126.5" y="-8.3" font-family="Times,serif" font-size="14.00">&#45; entry_created timestamp with time zone</text>
</g>
<!-- node1&#45;&gt;node7 -->
<g id="edge1" class="edge">
<title>node1&#45;&gt;node7</title>
<path fill="none" stroke="black" d="M132.79,-300.72C141.83,-289.95 152.26,-277.53 163.28,-264.39"/>
<polygon fill="black" stroke="black" points="166.09,-266.49 169.84,-256.58 160.73,-261.99 166.09,-266.49"/>
</g>
<!-- node2 -->
<g id="node2" class="node">
<title>node2</title>
<polygon fill="white" stroke="black" points="745.5,-308.5 745.5,-369.5 957.5,-369.5 957.5,-308.5 745.5,-308.5"/>
<text text-anchor="middle" x="851.5" y="-354.3" font-family="Times,serif" font-size="14.00">naive.global</text>
<polyline fill="none" stroke="black" points="745.5,-346.5 957.5,-346.5 "/>
<text text-anchor="start" x="753.5" y="-331.3" font-family="Times,serif" font-size="14.00">&#45; singleton_row boolean [U]</text>
<text text-anchor="start" x="753.5" y="-316.3" font-family="Times,serif" font-size="14.00">&#45; metadata jsonb</text>
</g>
<!-- node3 -->
<g id="node3" class="node">
<title>node3</title>
<polygon fill="white" stroke="black" points="221.5,-293.5 221.5,-384.5 457.5,-384.5 457.5,-293.5 221.5,-293.5"/>
<text text-anchor="middle" x="339.5" y="-369.3" font-family="Times,serif" font-size="14.00">naive.pieces</text>
<polyline fill="none" stroke="black" points="221.5,-361.5 457.5,-361.5 "/>
<text text-anchor="start" x="229.5" y="-346.3" font-family="Times,serif" font-size="14.00">&#45; piece_id bigint [U]</text>
<text text-anchor="start" x="229.5" y="-331.3" font-family="Times,serif" font-size="14.00">&#45; piece_cid text [U]</text>
<text text-anchor="start" x="229.5" y="-316.3" font-family="Times,serif" font-size="14.00">&#45; proven_log2_size smallint [N]</text>
<text text-anchor="start" x="229.5" y="-301.3" font-family="Times,serif" font-size="14.00">&#45; piece_meta jsonb</text>
</g>
<!-- node3&#45;&gt;node7 -->
<g id="edge2" class="edge">
<title>node3&#45;&gt;node7</title>
<path fill="none" stroke="black" d="M325.98,-293.27C323.46,-284.93 320.71,-275.81 317.84,-266.3"/>
<polygon fill="black" stroke="black" points="321.17,-265.23 314.92,-256.67 314.47,-267.25 321.17,-265.23"/>
</g>
<!-- node4 -->
<g id="node4" class="node">
<title>node4</title>
<polygon fill="white" stroke="black" points="537.5,-308.5 537.5,-369.5 727.5,-369.5 727.5,-308.5 537.5,-308.5"/>
<text text-anchor="middle" x="632.5" y="-354.3" font-family="Times,serif" font-size="14.00">naive.providers</text>
<polyline fill="none" stroke="black" points="537.5,-346.5 727.5,-346.5 "/>
<text text-anchor="start" x="545.5" y="-331.3" font-family="Times,serif" font-size="14.00">&#45; provider_id integer [U]</text>
<text text-anchor="start" x="545.5" y="-316.3" font-family="Times,serif" font-size="14.00">&#45; provider_meta jsonb</text>
</g>
<!-- node5 -->
<g id="node5" class="node">
<title>node5</title>
<polygon fill="white" stroke="black" points="452,-68 452,-189 813,-189 813,-68 452,-68"/>
<text text-anchor="middle" x="632.5" y="-173.8" font-family="Times,serif" font-size="14.00">naive.providers_info</text>
<polyline fill="none" stroke="black" points="452,-166 813,-166 "/>
<text text-anchor="start" x="460" y="-150.8" font-family="Times,serif" font-size="14.00">&#45; provider_id integer [FK,U]</text>
<text text-anchor="start" x="460" y="-135.8" font-family="Times,serif" font-size="14.00">&#45; provider_last_polled timestamp with time zone</text>
<text text-anchor="start" x="460" y="-120.8" font-family="Times,serif" font-size="14.00">&#45; info_last_updated timestamp with time zone</text>
<text text-anchor="start" x="460" y="-105.8" font-family="Times,serif" font-size="14.00">&#45; info_dialing_took_msecs integer [N]</text>
<text text-anchor="start" x="460" y="-90.8" font-family="Times,serif" font-size="14.00">&#45; info_dialing_peerid text [N]</text>
<text text-anchor="start" x="460" y="-75.8" font-family="Times,serif" font-size="14.00">&#45; info jsonb</text>
</g>
<!-- node4&#45;&gt;node5 -->
<g id="edge3" class="edge">
<title>node4&#45;&gt;node5</title>
<path fill="none" stroke="black" d="M632.5,-308.13C632.5,-279.93 632.5,-236.57 632.5,-199.64"/>
<polygon fill="black" stroke="black" points="636,-199.41 632.5,-189.41 629,-199.41 636,-199.41"/>
</g>
<!-- node6 -->
<g id="node6" class="node">
<title>node6</title>
<polygon fill="white" stroke="black" points="831.5,-75.5 831.5,-181.5 1181.5,-181.5 1181.5,-75.5 831.5,-75.5"/>
<text text-anchor="middle" x="1006.5" y="-166.3" font-family="Times,serif" font-size="14.00">naive.providers_info_log</text>
<polyline fill="none" stroke="black" points="831.5,-158.5 1181.5,-158.5 "/>
<text text-anchor="start" x="839.5" y="-143.3" font-family="Times,serif" font-size="14.00">&#45; provider_id integer [FK]</text>
<text text-anchor="start" x="839.5" y="-128.3" font-family="Times,serif" font-size="14.00">&#45; info_entry_created timestamp with time zone</text>
<text text-anchor="start" x="839.5" y="-113.3" font-family="Times,serif" font-size="14.00">&#45; info_dialing_took_msecs integer [N]</text>
<text text-anchor="start" x="839.5" y="-98.3" font-family="Times,serif" font-size="14.00">&#45; info_dialing_peerid text [N]</text>
<text text-anchor="start" x="839.5" y="-83.3" font-family="Times,serif" font-size="14.00">&#45; info jsonb</text>
</g>
<!-- node4&#45;&gt;node6 -->
<g id="edge4" class="edge">
<title>node4&#45;&gt;node6</title>
<path fill="none" stroke="black" d="M700.72,-308.39C712.64,-303.25 724.93,-297.96 736.5,-293 774.22,-276.85 785.54,-276.74 821.5,-257 858.38,-236.75 897.03,-210.93 929.4,-187.83"/>
<polygon fill="black" stroke="black" points="931.84,-190.39 937.92,-181.71 927.76,-184.7 931.84,-190.39"/>
</g>
<!-- node4&#45;&gt;node7 -->
<g id="edge5" class="edge">
<title>node4&#45;&gt;node7</title>
<path fill="none" stroke="black" d="M550.82,-308.44C518.84,-295.63 482.13,-279.38 443.7,-257.55"/>
<polygon fill="black" stroke="black" points="445.37,-254.47 434.96,-252.5 441.87,-260.53 445.37,-254.47"/>
</g>
</g>
</svg>
